<svg xmlns="http://www.w3.org/2000/svg" width="512" height="512" viewBox="0 0 512 512" fill="none">
  <defs>
    <linearGradient id="bg" x1="0" y1="0" x2="0" y2="512" gradientUnits="userSpaceOnUse">
      <stop offset="0" stop-color="#5CA950"/>
      <stop offset="1" stop-color="#4D9A43"/>
    </linearGradient>
    <filter id="ballShadow" x="-30%" y="-30%" width="160%" height="160%">
      <feDropShadow dx="0" dy="8" stdDeviation="12" flood-color="#1d3d18" flood-opacity="0.30"/>
    </filter>
  </defs>

  <!-- green app-icon background (Penca Ovación green) -->
  <rect x="0" y="0" width="512" height="512" rx="112" fill="url(#bg)"/>

  <!-- soccer ball, centered -->
  <g transform="translate(66,66) scale(0.6985)" filter="url(#ballShadow)">
    <path d="M535.967 215.058C509.733 93.0646 401.264 1.65234 271.415 1.65234C141.567 1.65234 33.0976 93.0646 6.86344 215.058C2.87242 233.488 0.788208 252.655 0.788208 272.28C0.788208 288.32 2.18628 304.004 4.85542 319.282C27.0983 446.334 137.983 542.907 271.415 542.907C404.848 542.907 515.732 446.334 537.975 319.282C540.644 304.004 542.043 288.32 542.043 272.28C542.043 252.655 539.958 233.488 535.967 215.058Z" fill="black"/>
    <path d="M542.043 272.28C542.043 288.32 540.644 304.004 537.975 319.282C515.732 446.334 404.848 542.907 271.415 542.907C137.983 542.907 27.0983 446.334 4.85542 319.282C2.18628 304.004 0.788208 288.32 0.788208 272.28C0.788208 252.655 2.87242 233.488 6.86344 215.058C33.0976 93.0646 141.567 1.65234 271.415 1.65234C401.264 1.65234 509.733 93.0646 535.967 215.058C539.958 233.488 542.043 252.655 542.043 272.28Z" fill="white"/>
    <path d="M271.898 499.311C397.283 499.311 498.929 397.666 498.929 272.28C498.929 146.894 397.283 45.2485 271.898 45.2485C146.512 45.2485 44.8671 146.894 44.8671 272.28C44.8671 397.666 146.512 499.311 271.898 499.311Z" fill="white"/>
    <path d="M503.632 216.329C500.531 203.263 496.336 190.654 491.125 178.529C490.032 175.885 488.863 173.292 487.643 170.699C482.457 159.667 476.458 149.117 469.696 139.076C452.384 113.325 430.167 91.1328 404.39 73.796C394.4 67.0849 383.85 61.0857 372.843 55.9507C370.276 54.7305 367.683 53.5866 365.065 52.4935C336.263 40.1391 304.564 33.3264 271.288 33.3264C238.013 33.3264 206.313 40.1391 177.537 52.4681C174.893 53.5612 172.301 54.7305 169.708 55.9507C158.701 61.0857 148.176 67.0849 138.161 73.796C112.41 91.1328 90.1922 113.325 72.8808 139.076C66.1189 149.117 60.1196 159.692 54.9338 170.725C53.7137 173.317 52.5443 175.91 51.4512 178.554C46.24 190.654 42.0454 203.288 38.9441 216.329C34.6226 234.276 32.335 253.011 32.335 272.28C32.335 288.828 34.0127 304.971 37.2411 320.553C40.4695 336.365 45.274 351.617 51.4766 366.107C52.5697 368.7 53.7391 371.293 54.9338 373.835C60.1196 384.867 66.1189 395.442 72.8808 405.483C90.1922 431.234 112.41 453.427 138.161 470.763C148.176 477.474 158.701 483.474 169.708 488.609C172.275 489.829 174.868 490.998 177.512 492.091C206.288 504.42 237.987 511.233 271.288 511.233C304.589 511.233 336.314 504.42 365.116 492.066C367.734 490.973 370.301 489.803 372.843 488.609C383.85 483.474 394.4 477.474 404.39 470.763C430.167 453.427 452.384 431.234 469.696 405.483C476.458 395.442 482.457 384.893 487.643 373.86C488.837 371.293 490.007 368.7 491.1 366.082C497.302 351.566 502.107 336.365 505.335 320.553C508.564 304.971 510.242 288.828 510.242 272.28C510.242 253.011 507.954 234.276 503.632 216.329ZM370.937 461.104C346.635 452.003 320.172 438.022 293.252 420.075C290.557 418.27 287.837 416.44 285.117 414.559C284.38 414.05 283.643 413.542 282.88 413.008C282.778 412.932 282.702 412.881 282.626 412.83C275.661 408.585 266.916 408.585 259.951 412.83C259.874 412.881 259.798 412.932 259.696 413.008C258.959 413.516 258.222 414.05 257.485 414.533C254.765 416.44 252.045 418.27 249.325 420.075C222.404 437.996 195.942 452.003 171.64 461.104C133.738 441.021 102.597 409.881 82.5151 372.005C83.2778 369.971 84.0658 367.886 84.9047 365.802C90.8022 351.083 98.225 335.907 107.021 320.553C112.054 311.783 117.519 302.962 123.391 294.116C123.824 293.48 124.23 292.845 124.662 292.209C126.899 288.879 129.187 285.549 131.551 282.245C134.831 275.915 134.755 268.339 131.374 262.061C129.416 259.29 127.484 256.519 125.628 253.748C124.866 252.629 124.129 251.536 123.391 250.443C115.791 239.004 108.876 227.616 102.75 216.329C95.7847 203.593 89.8108 191.035 84.9047 178.757C84.0658 176.673 83.2778 174.588 82.5151 172.555C102.597 134.678 133.738 103.538 171.64 83.4558C195.916 92.5563 222.404 106.563 249.325 124.485C251.053 125.628 252.782 126.798 254.536 127.993L254.816 128.171C256.722 129.492 258.654 130.814 260.586 132.187C267.221 135.949 275.356 135.949 281.99 132.187C283.922 130.814 285.854 129.492 287.761 128.171L288.04 127.993C289.794 126.798 291.523 125.628 293.252 124.485C320.172 106.538 346.635 92.5563 370.937 83.4558C408.839 103.538 439.979 134.678 460.061 172.555C459.299 174.588 458.511 176.673 457.672 178.757C452.74 191.035 446.766 203.593 439.827 216.329C433.675 227.616 426.786 239.03 419.185 250.469C418.422 251.613 417.66 252.757 416.872 253.875L416.77 254.002C414.965 256.671 413.11 259.366 411.203 262.035C411.178 262.035 411.152 262.086 411.152 262.111C407.822 268.365 407.746 275.864 410.949 282.168C410.949 282.194 410.974 282.219 411 282.245C413.389 285.6 415.728 288.93 417.965 292.286L418.016 292.337C418.397 292.921 418.778 293.506 419.185 294.091C425.057 302.937 430.523 311.783 435.53 320.553C444.326 335.907 451.774 351.083 457.672 365.802C458.511 367.886 459.299 369.971 460.061 372.005C439.979 409.881 408.839 441.021 370.937 461.104Z" fill="black"/>
    <path d="M357.413 238.216L284.1 184.96C276.474 179.418 266.153 179.418 258.502 184.96L185.189 238.216C177.563 243.758 174.36 253.595 177.283 262.544L205.296 348.745C208.22 357.718 216.558 363.794 225.989 363.794H316.613C326.044 363.794 334.407 357.718 337.305 348.745L365.319 262.544C368.242 253.57 365.039 243.758 357.413 238.216Z" fill="black"/>
  </g>
</svg>
